<?xml version="1.0" encoding="UTF-8"?><!DOCTYPE svg PUBLIC
        "-//W3C//DTD SVG 1.1//EN"
        "http://www.w3.org/Graphics/SVG/1.1/DTD/svg11.dtd">
<svg xmlns="http://www.w3.org/2000/svg"
     xmlns:xlink="http://www.w3.org/1999/xlink">
    <symbol id="close" viewBox="0 0 47.971 47.971">
        <path d="M28.228 23.986L47.092 5.122a2.998 2.998 0 000-4.242 2.998 2.998 0 00-4.242 0L23.986 19.744 5.121.88a2.998 2.998 0 00-4.242 0 2.998 2.998 0 000 4.242l18.865 18.864L.879 42.85a2.998 2.998 0 104.242 4.241l18.865-18.864L42.85 47.091c.586.586 1.354.879 2.121.879s1.535-.293 2.121-.879a2.998 2.998 0 000-4.242L28.228 23.986z"/>
    </symbol>
    <symbol id="grey-fox" viewBox="0 0 24 24">
        <path d="M13.4 7h-3C9.7 5.3 7 0 7 0v7.3h-.2l-4.1 4.2s5 2.5 7.2 5.8l-1-3.2-3.4-2.7 4.5 1.7.9 8-.7.6L12 24l1.6-2.1-.8-.7.1-1.1c0-.1.1-.3.1-.5l.6-5.3.1-1 4.5-1.7-3.2 2.6-1 3.2c2.2-3.3 7.2-5.8 7.2-5.8l-4.1-4.2h-.2V0s-2.7 5.3-3.4 7h-.1z"/>
    </symbol>
    <symbol id="slider-next" viewBox="0 0 13.94 24">
        <path d="M2.03.08l11.79 11.7a.3.3 0 010 .48L2.03 23.91a.4.4 0 01-.49 0L0 22.39l10.31-10.13a.389.389 0 000-.48L0 1.6 1.54.08a.4.4 0 01.49 0z"
              fill-rule="evenodd"/>
    </symbol>
    <symbol id="slider-prev" viewBox="0 0 13.91 24">
        <path data-name="Shape 14 copy"
              d="M11.88.08L.09 11.78a.3.3 0 000 .48l11.79 11.65a.4.4 0 00.49 0l1.54-1.52L3.6 12.26a.389.389 0 010-.48L13.91 1.6 12.37.08a.4.4 0 00-.49 0z"
              fill-rule="evenodd"/>
    </symbol>
</svg>